<?xml version='1.0' encoding='utf-8'?>
<svg xmlns="http://www.w3.org/2000/svg" version="1.1" id="Layer_1" x="0px" y="0px" viewBox="0 0 1080 1080" style="enable-background:new 0 0 1080 1080;"> <style type="text/css"> .st0{fill:#039C3D;} .st1{fill:#FEDF00;} .st2{fill:#0C228B;} .st3{fill:#FFFFFF;} </style> <rect x="34.3" y="199.6" class="st0" width="1011.3" height="680.9"/> <polygon class="st1" points="968.9,540 540,262.8 111.1,540 540,817.2 "/> <g> <g> <path class="st2" d="M741.9,540c0,21.8-3.5,42.8-9.9,62.5L714.3,642c-35.1,59.8-100,99.9-174.3,99.9 c-111.5,0-201.9-90.4-201.9-201.9c0-31.2,7.1-60.8,19.8-87.3c4.8-10.1,10.5-19.7,16.9-28.8c36.5-51.9,97-85.8,165.2-85.8 C651.5,338.1,741.9,428.5,741.9,540z"/> </g> <g> <path class="st3" d="M732.1,602.5L714.3,642c-1.3-1.5-2.2-3.3-2.8-5.3c-43.6-143-195.4-223.9-338.3-180.3 c-5.6,1.7-11.3,0.1-15.3-3.7c4.8-10.1,10.5-19.7,16.9-28.8C522.2,384.7,675.5,462.5,732.1,602.5z"/> </g> </g> </svg>